<?xml version="1.0" encoding="UTF-8" standalone="no"?>
<!-- Created with Inkscape (http://www.inkscape.org/) -->

<svg
   width="672"
   height="512"
   viewBox="0 0 672 512"
   version="1.1"
   id="svg5"
   inkscape:version="1.1.2 (0a00cf5339, 2022-02-04, custom)"
   sodipodi:docname="booting-server.svg"
   xmlns:inkscape="http://www.inkscape.org/namespaces/inkscape"
   xmlns:sodipodi="http://sodipodi.sourceforge.net/DTD/sodipodi-0.dtd"
   xmlns="http://www.w3.org/2000/svg"
   xmlns:svg="http://www.w3.org/2000/svg">
  <sodipodi:namedview
     id="namedview7"
     pagecolor="#ffffff"
     bordercolor="#666666"
     borderopacity="1.0"
     inkscape:pageshadow="2"
     inkscape:pageopacity="0.0"
     inkscape:pagecheckerboard="false"
     inkscape:document-units="px"
     showgrid="true"
     units="px"
     width="1024px"
     inkscape:showpageshadow="true"
     inkscape:object-paths="false"
     inkscape:zoom="0.82075541"
     inkscape:cx="222.35613"
     inkscape:cy="124.27576"
     inkscape:window-width="1920"
     inkscape:window-height="1176"
     inkscape:window-x="0"
     inkscape:window-y="0"
     inkscape:window-maximized="1"
     inkscape:current-layer="layer1">
    <inkscape:grid
       type="xygrid"
       id="grid16"
       empspacing="2"
       spacingx="256"
       spacingy="256"
       empcolor="#bf3f6b"
       empopacity="0.4"
       color="#bf3f6b"
       opacity="0.20392157"
       enabled="true" />
    <inkscape:grid
       type="xygrid"
       id="grid18"
       spacingx="64"
       spacingy="64"
       empspacing="2"
       enabled="true" />
    <inkscape:grid
       type="xygrid"
       id="grid20"
       spacingx="16"
       spacingy="16"
       color="#3fd468"
       opacity="0.14117647"
       empcolor="#3fd468"
       empopacity="0.2627451"
       empspacing="2"
       enabled="true" />
    <inkscape:grid
       type="xygrid"
       id="grid3092"
       spacingx="4"
       spacingy="4"
       empspacing="2"
       enabled="true" />
  </sodipodi:namedview>
  <defs
     id="defs2" />
  <g
     inkscape:label="Layer 1"
     inkscape:groupmode="layer"
     id="layer1">
    <path
       style="fill:#1f1f1f;fill-opacity:1;stroke:none;stroke-width:1px;stroke-linecap:butt;stroke-linejoin:miter;stroke-opacity:1"
       d="m 0,304 c 0,16 16,16 16,16 h 640 c 0,0 -16,0 0,0 16,0 16,-16 16,-16 0,0 0,-80 0,-96 0,-16 -16,-16 -16,-16 0,0 -624,0 -640,0 -16,0 -16,16 -16,16 z"
       id="path2182" />
    <circle
       style="fill:#7e7e7e;fill-opacity:0.990716;fill-rule:nonzero;stroke:none;stroke-width:2;stroke-linecap:round;stroke-linejoin:round;stroke-miterlimit:4;stroke-dasharray:none;stroke-opacity:1;paint-order:normal"
       id="path3196-6-7"
       cx="528"
       cy="256"
       r="24" />
    <circle
       style="fill:#7e7e7e;fill-opacity:0.990716;fill-rule:nonzero;stroke:none;stroke-width:2;stroke-linecap:round;stroke-linejoin:round;stroke-miterlimit:4;stroke-dasharray:none;stroke-opacity:1;paint-order:normal"
       id="path3196-6"
       cx="608"
       cy="256"
       r="24" />
    <path
       style="fill:#1f1f1f;fill-opacity:1;stroke:none;stroke-width:1px;stroke-linecap:butt;stroke-linejoin:miter;stroke-opacity:1"
       d="m 0,496 c 0,16 16,16 16,16 h 640 c 0,0 -16,0 0,0 16,0 16,-16 16,-16 0,0 0,-80 0,-96 0,-16 -16,-16 -16,-16 0,0 -624,0 -640,0 -16,0 -16,16 -16,16 z"
       id="path2984" />
    <circle
       style="fill:#00dd00;fill-opacity:1;fill-rule:nonzero;stroke:none;stroke-width:2;stroke-linecap:round;stroke-linejoin:round;stroke-miterlimit:4;stroke-dasharray:none;stroke-opacity:1;paint-order:normal"
       id="path3196-3"
       cx="528"
       cy="448"
       r="24" />
    <path
       style="fill:#1f1f1f;fill-opacity:1;stroke:none;stroke-width:1px;stroke-linecap:butt;stroke-linejoin:miter;stroke-opacity:1"
       d="m 0,112 c 0,16 16,16 16,16 h 640 c 0,0 -16,0 0,0 16,0 16,-16 16,-16 0,0 0,-80 0,-96 C 672,0 656,0 656,0 656,0 32,0 16,0 0,0 0,16 0,16 Z"
       id="path2986" />
    <circle
       style="fill:#7e7e7e;fill-opacity:0.990716;fill-rule:nonzero;stroke:none;stroke-width:2;stroke-linecap:round;stroke-linejoin:round;stroke-miterlimit:4;stroke-dasharray:none;stroke-opacity:1;paint-order:normal"
       id="path3196-6-7-5"
       cx="528"
       cy="64"
       r="24" />
    <circle
       style="fill:#7e7e7e;fill-opacity:0.990716;fill-rule:nonzero;stroke:none;stroke-width:2;stroke-linecap:round;stroke-linejoin:round;stroke-miterlimit:4;stroke-dasharray:none;stroke-opacity:1;paint-order:normal"
       id="path3196-6-3"
       cx="608"
       cy="64"
       r="24" />
    <circle
       style="fill:#fd7700;fill-opacity:0.990716;fill-rule:nonzero;stroke:none;stroke-width:2;stroke-linecap:round;stroke-linejoin:round;stroke-miterlimit:4;stroke-dasharray:none;stroke-opacity:1;paint-order:normal"
       id="path3196"
       cx="608"
       cy="448"
       r="24" />
  </g>
</svg>
