<?xml version="1.0" standalone="no"?>
<!DOCTYPE svg PUBLIC "-//W3C//DTD SVG 20010904//EN"
 "http://www.w3.org/TR/2001/REC-SVG-20010904/DTD/svg10.dtd">
<svg version="1.0" xmlns="http://www.w3.org/2000/svg"
 width="672.000000pt" height="672.000000pt" viewBox="0 0 672.000000 672.000000"
 preserveAspectRatio="xMidYMid meet">
<metadata>
Created by potrace 1.14, written by Peter Selinger 2001-2017
</metadata>
<g transform="translate(0.000000,672.000000) scale(0.100000,-0.100000)"
fill="#000000" stroke="none">
<path d="M95 5910 c-32 -13 -64 -48 -80 -87 -14 -32 -15 -109 -13 -563 3 -488
4 -527 21 -552 28 -41 88 -66 165 -67 105 -2 175 0 184 5 4 3 8 2 8 -3 0 -4
38 -6 85 -3 47 3 85 1 85 -3 0 -5 4 -6 9 -3 7 5 68 7 151 5 8 0 52 1 98 2 46
1 85 0 87 -3 2 -2 31 -1 65 2 33 3 60 3 60 0 0 -3 38 -3 85 0 47 3 85 3 85 0
0 -3 40 -3 90 0 50 3 90 2 90 -1 0 -3 19 -3 43 0 23 4 61 4 85 1 23 -4 42 -4
42 -1 0 3 27 6 60 6 33 0 60 -2 60 -5 0 -3 38 -3 85 0 47 3 85 1 85 -3 0 -5 4
-6 9 -3 7 5 68 7 151 5 8 0 52 1 98 2 46 1 85 0 87 -3 2 -2 31 -1 65 2 33 3
60 3 60 0 0 -3 38 -3 85 0 47 3 85 3 85 0 0 -3 38 -3 84 0 46 3 96 3 112 0 16
-3 48 -3 72 1 23 3 42 2 42 -3 0 -5 4 -7 8 -4 7 4 120 7 182 5 8 0 44 0 80 0
36 0 72 0 80 0 8 0 41 2 73 3 31 2 57 1 57 -2 0 -3 38 -3 85 0 47 3 85 3 85 0
0 -3 26 -3 58 0 31 3 80 3 107 0 28 -3 71 -2 98 1 26 3 47 3 47 0 0 -5 80 -5
260 -1 43 1 328 2 360 1 8 0 53 0 100 0 47 1 92 1 100 0 64 -2 122 -1 130 4 6
3 10 1 10 -5 0 -6 4 -9 8 -6 7 4 120 7 182 5 8 0 44 0 80 0 36 0 72 0 80 0 8
0 41 2 73 3 31 2 57 1 57 -2 0 -3 38 -3 85 0 47 3 85 3 85 0 0 -3 26 -3 58 0
31 3 80 3 107 0 28 -3 71 -2 98 1 26 3 47 3 47 0 0 -5 80 -5 260 -1 43 1 328
2 360 1 8 0 53 0 100 0 47 1 90 1 95 1 141 -7 190 11 224 81 21 42 21 55 21
561 0 489 -1 519 -19 554 -11 20 -34 46 -53 57 -33 20 -53 20 -3283 22 -1787
1 -3259 -2 -3270 -7z"/>
<path d="M178 4004 c-2 -1 -19 -5 -38 -7 -57 -6 -96 -33 -119 -81 -21 -43 -22
-50 -19 -572 3 -492 4 -531 21 -556 28 -41 88 -66 165 -67 105 -2 175 0 184 5
4 3 8 2 8 -3 0 -4 38 -6 85 -3 47 3 85 3 85 0 0 -3 26 -3 58 0 31 3 80 3 107
0 28 -3 71 -2 98 1 26 3 47 1 47 -3 0 -5 4 -7 8 -4 7 4 120 7 182 5 8 0 44 0
80 0 36 0 72 0 80 0 8 0 41 2 73 3 31 2 57 1 57 -2 0 -3 38 -3 85 0 47 3 85 3
85 0 0 -3 26 -3 58 0 31 3 80 3 107 0 28 -3 71 -2 98 1 26 3 47 1 47 -3 0 -5
4 -7 8 -4 7 4 120 7 182 5 8 0 44 0 80 0 36 0 72 0 80 0 8 0 41 2 73 3 31 2
57 1 57 -2 0 -3 38 -3 85 0 47 3 85 3 85 0 0 -4 77 -4 250 0 38 1 312 2 360 1
8 0 80 0 160 0 80 0 152 0 160 0 8 0 80 0 160 0 80 0 152 0 160 0 83 -2 195 1
201 5 5 3 9 1 9 -4 0 -5 19 -6 43 -3 23 4 61 4 84 1 24 -4 43 -4 43 -1 0 3 27
6 60 6 33 0 60 -2 60 -5 0 -3 38 -3 85 0 47 3 85 3 85 0 0 -3 26 -3 58 0 31 3
80 3 107 0 28 -3 71 -2 98 1 26 3 47 1 47 -3 0 -5 4 -7 8 -4 7 4 120 7 182 5
8 0 44 0 80 0 36 0 72 0 80 0 8 0 41 2 73 3 31 2 57 1 57 -2 0 -3 38 -3 85 0
47 3 85 3 85 0 0 -3 26 -3 58 0 31 3 80 3 107 0 28 -3 71 -2 98 1 26 3 47 1
47 -3 0 -5 4 -7 8 -4 7 4 120 7 182 5 8 0 44 0 80 0 36 0 72 0 80 0 8 0 41 2
73 3 31 2 57 1 57 -2 0 -3 38 -3 85 0 47 3 85 3 85 0 0 -5 167 -4 254 1 66 4
113 33 136 84 19 42 20 63 20 554 0 445 -2 516 -16 551 -17 42 -59 75 -109 85
-39 8 -263 8 -275 0 -6 -3 -10 -2 -10 3 0 5 -19 6 -42 3 -24 -4 -62 -4 -85 -1
-24 4 -43 4 -43 1 0 -3 -30 -5 -67 -3 -38 1 -99 2 -138 2 -38 -1 -79 -1 -90 0
-11 1 -27 1 -35 1 -8 0 -37 0 -65 0 -27 0 -59 0 -70 -1 -11 -1 -27 -1 -35 -1
-215 2 -272 1 -280 -4 -6 -3 -10 -2 -10 3 0 4 -19 6 -42 2 -24 -3 -62 -3 -85
1 -24 3 -43 3 -43 0 0 -3 -30 -5 -67 -3 -38 1 -99 2 -138 2 -38 -1 -79 -1 -90
0 -11 1 -27 1 -35 1 -8 0 -37 0 -65 0 -27 0 -59 0 -70 -1 -11 -1 -27 -1 -35
-1 -215 2 -272 1 -280 -4 -6 -3 -10 -2 -10 3 0 5 -19 6 -42 3 -24 -4 -62 -4
-85 -1 -24 4 -43 4 -43 1 0 -3 -30 -5 -67 -3 -38 1 -99 2 -138 2 -38 -1 -79
-1 -90 0 -11 1 -27 1 -35 1 -8 0 -37 0 -65 0 -27 0 -59 0 -70 -1 -11 -1 -27
-1 -35 -1 -215 2 -272 1 -280 -4 -6 -3 -10 -2 -10 3 0 5 -19 6 -42 3 -24 -4
-62 -4 -85 -1 -24 4 -43 4 -43 1 0 -3 -27 -6 -60 -6 -33 0 -60 2 -60 5 0 3
-38 3 -85 0 -47 -3 -85 -3 -85 0 0 3 -46 4 -102 3 -107 -2 -202 -3 -228 -2
-18 1 -188 0 -244 -1 -22 -1 -43 -3 -48 -6 -4 -3 -8 -2 -8 3 0 4 -43 6 -95 3
-52 -3 -105 -3 -117 0 -13 4 -42 3 -65 0 -24 -4 -43 -4 -43 -1 0 3 -40 4 -89
1 -48 -3 -101 -3 -117 0 -16 3 -48 3 -71 -1 -24 -3 -43 -3 -43 0 0 3 -43 4
-95 1 -52 -3 -105 -3 -117 0 -13 4 -42 3 -65 0 -24 -4 -43 -4 -43 -1 0 3 -40
4 -89 1 -48 -3 -101 -3 -117 0 -16 3 -48 3 -71 -1 -24 -3 -43 -3 -43 0 0 3
-43 4 -95 1 -52 -3 -105 -3 -117 0 -13 4 -42 3 -65 0 -24 -4 -43 -4 -43 -1 0
3 -40 4 -89 1 -48 -3 -101 -3 -117 0 -16 3 -48 3 -71 -1 -24 -3 -43 -3 -43 0
0 3 -43 4 -95 1 -53 -3 -107 -2 -120 1 -13 4 -25 5 -27 3z"/>
<path d="M178 2084 c-2 -1 -19 -5 -38 -7 -57 -6 -96 -33 -119 -81 -21 -43 -22
-50 -19 -572 3 -597 -1 -563 82 -604 l42 -20 3238 0 c3222 0 3237 0 3276 20
28 15 45 33 60 65 19 42 20 63 20 554 0 572 0 571 -67 612 -38 24 -92 30 -233
28 -47 0 -92 -1 -100 0 -64 2 -122 1 -130 -4 -6 -3 -10 -3 -10 2 0 4 -43 6
-95 3 -52 -3 -105 -3 -117 0 -13 4 -42 3 -65 0 -24 -4 -43 -3 -43 2 0 5 -4 7
-9 3 -6 -3 -43 -5 -83 -5 -40 1 -82 0 -93 0 -11 -1 -27 -1 -35 -1 -215 2 -272
1 -280 -4 -6 -3 -10 -2 -10 3 0 4 -19 6 -42 2 -24 -3 -62 -3 -85 1 -24 3 -43
3 -43 0 0 -3 -27 -6 -60 -6 -33 0 -60 2 -60 5 0 3 -38 3 -85 0 -47 -3 -85 -3
-85 0 0 3 -46 4 -102 3 -107 -2 -202 -3 -228 -2 -18 1 -188 0 -244 -1 -22 -1
-43 -3 -48 -6 -4 -3 -8 -2 -8 3 0 4 -43 6 -95 3 -52 -3 -105 -3 -117 0 -13 4
-42 3 -65 0 -24 -4 -43 -3 -43 2 0 5 -4 7 -9 3 -6 -3 -43 -5 -83 -5 -40 1 -82
0 -93 0 -11 -1 -27 -1 -35 -1 -215 2 -272 1 -280 -4 -6 -3 -10 -2 -10 3 0 5
-19 6 -42 3 -24 -4 -62 -4 -85 -1 -24 4 -43 4 -43 1 0 -3 -27 -6 -60 -6 -33 0
-60 2 -60 5 0 3 -38 3 -85 0 -47 -3 -85 -3 -85 0 0 3 -46 4 -102 3 -107 -2
-202 -3 -228 -2 -18 1 -188 0 -244 -1 -22 -1 -43 -3 -48 -6 -4 -3 -8 -2 -8 3
0 4 -43 6 -95 3 -52 -3 -105 -3 -117 0 -13 4 -42 3 -65 0 -24 -4 -43 -3 -43 2
0 5 -4 7 -9 3 -6 -3 -43 -5 -83 -5 -40 1 -82 0 -93 0 -11 -1 -27 -1 -35 -1
-215 2 -272 1 -280 -4 -6 -3 -10 -2 -10 3 0 4 -19 6 -42 2 -24 -3 -62 -3 -85
1 -24 3 -43 3 -43 0 0 -3 -27 -6 -60 -6 -33 0 -60 2 -60 5 0 3 -38 3 -85 0
-47 -3 -85 -3 -85 0 0 3 -46 4 -102 3 -107 -2 -202 -3 -228 -2 -18 1 -188 0
-244 -1 -22 -1 -43 -3 -48 -6 -4 -3 -8 -2 -8 3 0 4 -43 6 -95 3 -53 -3 -107
-2 -120 1 -13 4 -25 5 -27 3z"/>
</g>
</svg>
